<?xml version="1.0" encoding="UTF-8"?>
<svg id="Layer_1" xmlns="http://www.w3.org/2000/svg" version="1.1" viewBox="0 0 3000 3000">
  <!-- Generator: Adobe Illustrator 30.0.0, SVG Export Plug-In . SVG Version: 2.1.1 Build 123)  -->
  <g>
    <g>
      <path d="M876.25,1432.26c-1.67.31-3.35.62-5.04.92-.88.16-1.76.31-2.63.47-2.09.36-4.19.7-6.28,1.04-1.19.19-2.37.37-3.57.55-1.06.17-2.12.32-3.19.48-1.38.19-2.76.39-4.16.58-.6.08-1.2.16-1.79.23-3.11.4-6.22.78-9.34,1.13-.26.03-.52.07-.78.09-72.15,7.88-147.2-.78-219.67-28.41-141.36-53.89-241.96-168.18-283.6-302.25-.06,0-.11-.01-.18-.01-30.33-97.68-29.38-205.85,9.88-308.82,25.97-68.12,65.97-126.76,115.44-173.91l-.03.14c39.52-37.7,85.09-68.07,134.41-90.06V210.17c-4-.7-8.07-1.03-12.16-.95-8.18.13-16.43,1.88-24.33,5.43l-179.69,80.49c-31.4,14.06-45.58,51.27-31.52,82.67l36.47,81.41c-47.56,37.76-90.14,82.47-126.04,133.35l-83.3-31.75c-32.15-12.26-68.49,4.02-80.75,36.16l-70.13,183.98c-12.26,32.15,4.02,68.49,36.16,80.74l83.3,31.76c-7.1,61.86-5.08,123.58,5.27,183.42l-81.41,36.47c-31.4,14.06-45.59,51.27-31.52,82.67l80.49,179.69c11,24.56,36.15,38.58,61.61,36.8,7.15-.48,14.33-2.21,21.22-5.29l81.28-36.41c37.76,47.55,82.46,90.12,133.32,126l-31.75,83.3h0c-12.27,32.15,4.02,68.49,36.16,80.75l183.98,70.13c7.07,2.7,14.35,4.01,21.53,4.08,25.5.31,49.79-15.12,59.37-40.25l31.76-83.28c23.19,2.66,46.36,4.03,69.42,4.17,21.45.13,42.81-.81,64-2.81l28.11-180.7c-.11.02-.21.04-.32.07h.01ZM1174.46,282c-4.76-3.71-10.13-6.77-16.03-9.02l-162.3-61.87v240.73c0,4.17,3.65,7.82,7.81,7.82h162.71c4.16,0,7.81-3.65,7.81-7.82v-6.42c-3.83-2.84-7.7-5.64-11.61-8.39l11.61-30.46v-124.57h0Z"/>
      <path d="M880.49,1304.55c-.69.19-1.39.38-2.09.57-1.53.41-3.05.8-4.58,1.19-1,.25-1.99.49-2.99.74-1.37.33-2.73.67-4.1.98-1.58.37-3.15.71-4.74,1.05-1.25.27-2.5.53-3.74.79-2.02.41-4.03.81-6.06,1.19-.78.14-1.57.28-2.36.42-1.87.33-3.75.66-5.64.97-.68.11-1.37.21-2.06.32-2.26.36-4.55.69-6.82,1-.27.03-.52.08-.78.11-55.87,7.46-114.34,1.5-170.72-19.99-46.28-17.64-86.65-44.04-119.94-76.6s-59.49-71.26-77.45-113.5c-.04.01-.09.02-.13.03-34.17-80.36-38.52-173.54-4.95-261.58,14.23-37.32,34.17-70.79,58.43-99.82.02.03.03.06.04.09,23.34-27.94,50.68-51.76,80.83-70.9-1.82-9.38-3.13-18.9-3.94-28.51-70.78,41.8-128.4,106.98-159.97,189.76-74.03,194.18,23.36,411.63,217.55,485.66,57.63,21.97,117.32,28.82,174.7,22.55.14-.02.29-.03.43-.06,2.83-.31,5.66-.65,8.47-1.03.17-.02.33-.04.5-.07,5.72-.77,11.4-1.67,17.06-2.71.72-.12,1.44-.27,2.15-.4,1.96-.37,3.93-.76,5.89-1.16.95-.19,1.89-.38,2.83-.58,1.8-.39,3.61-.79,5.4-1.2.94-.21,1.88-.41,2.82-.63,2.41-.57,4.82-1.17,7.22-1.78,1.4-.36,2.8-.75,4.2-1.11,1.13-.31,2.25-.61,3.36-.92,1.13-.31,2.25-.63,3.39-.97l4.5-28.95c-5.53,1.82-11.1,3.49-16.71,5.02h0Z"/>
    </g>
    <g>
      <path d="M2924.5,1886.27h-136.1c-7.34-68.31-25.17-133.47-51.83-193.87l117.76-67.98c26.35-15.22,35.46-49.22,20.25-75.58l-15.66-27.14c-10.22-17.68-28.89-27.59-48.03-27.61-9.8-.23-19.78,2.13-28.83,7.35l-116.96,67.53c-39.69-54-87.45-101.72-141.48-141.35l68.05-117.86c15.21-26.35,6.09-60.36-20.25-75.58l-27.13-15.66c-9.07-5.24-19.03-7.59-28.83-7.35-19.15,0-37.85,9.9-48.06,27.61l-67.73,117.31c-60.1-26.42-124.91-44.08-192.81-51.38v-116.12c-9.87,6.64-21.48,10.21-33.64,10.21h-74.4l44.14,285.97c167.5,2.93,313.74,92.99,395.36,226.79h1.31c43.66,71.61,68.83,155.73,68.83,245.73,0,117.44-42.85,224.89-113.76,307.55,9.09,28.07,13.82,57.66,13.82,87.94v73.57c0,34.29-17.24,64.62-43.51,82.8,70.3,8.57,124.94,68.61,124.94,141.18v12.55c11.09-16.95,12.5-39.43,1.74-58.07l-68.05-117.86c54.22-39.76,102.11-87.66,141.87-141.87l117.85,68.05c26.36,15.22,60.36,6.09,75.58-20.25l15.66-27.14c15.22-26.35,6.11-60.36-20.25-75.58l-117.76-67.98c26.66-60.4,44.49-125.56,51.83-193.87h136.09c30.43,0,55.33-24.9,55.33-55.33v-31.33c0-30.43-24.9-55.33-55.33-55.33h0Z"/>
      <path d="M2501.53,1802.76c-20-47.27-48.61-89.72-85.05-126.16-36.44-36.44-78.89-65.07-126.16-85.05-43.18-18.27-88.73-28.59-135.64-30.76l8.79,56.9c80.03,6.74,152.27,41.26,207.03,93.85h1.21c64.62,62.06,104.91,149.28,104.91,245.73,0,69.7-21.03,134.57-57.08,188.61,1.68,1.6,3.35,3.23,5.01,4.89,12.22,12.22,23.21,25.35,32.88,39.21,17.58-24.23,32.33-50.38,44.1-78.2,20.7-48.96,31.21-100.94,31.21-154.51s-10.5-105.55-31.21-154.51Z"/>
    </g>
  </g>
  <g>
    <path d="M1212.76,200.15v251.69c0,30.35-24.83,55.16-55.16,55.16h-162.7c-30.35,0-55.16-24.83-55.16-55.16V185.62c0-19.25-15.61-34.86-34.86-34.86h-223.31c-26.16,0-47.55,21.41-47.55,47.57v421.62c0,123.39,100.95,224.33,224.33,224.33l.02.02h1269.82c119.64,0,217.52-97.89,217.52-217.52V198.35c0-26.16-21.41-47.57-47.55-47.57h-212.6c-27.88,0-50.48,22.61-50.48,50.48v250.57c0,30.35-24.83,55.16-55.16,55.16h-162.7c-30.35,0-55.16-24.83-55.16-55.16V192.98c0-23.3-18.88-42.2-42.2-42.2h-457.73c-27.26,0-49.36,22.09-49.36,49.36h-.01Z"/>
    <path d="M2149.52,1828.98h-10.38l-104.6-677.56h129.63c3.6,0,6.89-1.47,9.26-3.84,2.96-2.96,4.17-7.25,3.53-11.36l-30.25-196.02c0-7.2-5.9-13.1-13.1-13.1H837.51c-7.2,0-13.1,5.9-13.1,13.1l-36.64,195.65c-.96,5.09,1.02,10.44,5.31,13.35,2.08,1.43,4.6,2.25,7.32,2.25h158.71l-105.39,677.56h-44.59l-.02-.02c-53.18,0-96.71,43.53-96.71,96.71v18c0,53.18,43.53,96.71,96.71,96.71h1347.4c1.39,0,2.76-.22,4.04-.64,48.04-5.54,85.67-46.62,85.67-96.07v-18c0-53.18-43.53-96.71-96.71-96.71h0Z"/>
    <path d="M781.9,2114.17c-135.88,0-247.07,111.19-247.07,247.07v73c0,24.93,20.4,45.35,45.35,45.35v.02h1818.65c29.3,0,53.28-23.98,53.28-53.28v-73.57c0-131.22-107.37-238.59-238.59-238.59H781.9Z"/>
    <path d="M2533.54,2791.01v-140.7c0-52.2-42.69-94.9-94.9-94.9H542.39c-51.71,0-94.01,42.3-94.01,94.01v142.46c0,31.55,25.81,57.37,57.37,57.37h1969.55c32.04,0,58.25-26.22,58.25-58.25h0Z"/>
  </g>
</svg>