<?xml version="1.0" encoding="UTF-8"?>
<svg id="Layer_1" xmlns="http://www.w3.org/2000/svg" version="1.1" viewBox="0 0 3000 3000">
  <!-- Generator: Adobe Illustrator 30.0.0, SVG Export Plug-In . SVG Version: 2.1.1 Build 123)  -->
  <path d="M1441.68,976.22v102.75c0,12.39-10.14,22.52-22.52,22.52h-66.42c-12.39,0-22.52-10.14-22.52-22.52v-108.68c0-7.86-6.37-14.23-14.23-14.23h-91.16c-10.68,0-19.41,8.74-19.41,19.42v172.12c0,50.37,41.21,91.58,91.58,91.58h.01s518.38.01,518.38.01c48.84,0,88.8-39.96,88.8-88.8v-174.9c0-10.68-8.74-19.42-19.41-19.42h-86.79c-11.38,0-20.61,9.23-20.61,20.61v102.29c0,12.39-10.14,22.52-22.52,22.52h-66.42c-12.39,0-22.52-10.14-22.52-22.52v-105.67c0-9.51-7.71-17.23-17.23-17.23h-186.86c-11.13,0-20.15,9.02-20.15,20.15Z"/>
  <path d="M1824.09,1641.16h-4.24l-42.7-276.6h52.92c1.47,0,2.81-.6,3.78-1.57,1.21-1.21,1.7-2.96,1.44-4.64l-12.35-80.02c0-2.94-2.41-5.35-5.35-5.35h-529.1c-2.94,0-5.35,2.41-5.35,5.35l-14.96,79.87c-.39,2.08.42,4.26,2.17,5.45.85.58,1.88.92,2.99.92h64.79l-43.02,276.6h-18.21c-21.71-.01-39.48,17.76-39.48,39.47v7.35c0,21.71,17.77,39.48,39.48,39.48h550.05c.57,0,1.13-.09,1.65-.26,19.61-2.26,34.97-19.03,34.97-39.22v-7.35c0-21.71-17.77-39.48-39.48-39.48Z"/>
  <path d="M1265.79,1757.58c-55.47,0-100.86,45.39-100.86,100.86v29.8c0,10.18,8.33,18.51,18.51,18.51h0s742.43.01,742.43.01c11.96,0,21.75-9.79,21.75-21.75v-30.03c0-53.57-43.83-97.4-97.4-97.4h-584.43Z"/>
  <path d="M1980.86,2033.89v-57.44c0-21.31-17.43-38.74-38.74-38.74h-774.11c-21.11,0-38.38,17.27-38.38,38.38v58.16c0,12.88,10.54,23.42,23.42,23.42h804.03c13.08,0,23.78-10.7,23.78-23.78Z"/>
  <path d="M557.01,1563.42c-11.01,28.86,3.61,61.47,32.46,72.48l165.13,62.95c28.86,11,61.47-3.61,72.47-32.46l28.51-74.77c55.52,6.37,110.92,4.56,164.63-4.73l32.73,73.07c12.62,28.18,46.02,40.92,74.2,28.29l52.66-23.59c5.04-38.3,30.54-70.25,65.13-84.46l23.64-151.99c-9.75-1.79-19.05-5.59-27.38-11.22-23.78-16.11-35.72-44.81-30.41-73.13l4.39-23.46c-114.88,109.63-286.82,150.11-445.07,89.77-219.32-83.62-329.32-329.2-245.7-548.51,83.62-219.32,329.2-329.32,548.51-245.7,126.88,48.37,217.17,150.95,254.55,271.29,29.36,1.12,54.78,17.93,68.07,42.26,15.23-25.33,42.99-42.32,74.63-42.32h85.85l12.4-5.55c28.18-12.62,40.92-46.02,28.29-74.2h0s-72.24-161.29-72.24-161.29c-12.62-28.18-46.02-40.91-74.2-28.29l-73.07,32.73c-33.89-42.69-74.02-80.92-119.69-113.14l28.5-74.77c11.01-28.86-3.61-61.47-32.46-72.47l-165.13-62.96c-28.86-11-61.47,3.61-72.47,32.47l-28.51,74.76c-55.52-6.37-110.92-4.56-164.63,4.73l-32.73-73.07c-12.62-28.18-46.02-40.92-74.2-28.29l-161.28,72.24c-28.18,12.62-40.91,46.02-28.29,74.2l32.73,73.07c-42.69,33.89-80.91,74.02-113.13,119.69l-74.77-28.5c-28.86-11-61.47,3.61-72.48,32.46l-62.95,165.13c-11,28.86,3.61,61.47,32.46,72.47l74.77,28.51c-6.37,55.52-4.56,110.92,4.73,164.63l-73.07,32.73c-28.18,12.62-40.92,46.02-28.29,74.2l72.24,161.28c12.62,28.18,46.02,40.91,74.2,28.29l73.07-32.73c33.89,42.69,74.02,80.92,119.69,113.13l-28.5,74.77Z"/>
  <path d="M1033.41,719.57c83.08,31.67,144.93,94.79,177.17,170.62,7.2-1.96,14.78-3,22.59-3h1.75c-33.88-84.31-101.49-154.78-193.09-189.71-174.29-66.45-369.46,20.97-435.91,195.26-66.45,174.29,20.97,369.46,195.26,435.91,135.54,51.67,283.7,10.3,374.13-92.62-4.76-6.82-9-14.03-12.65-21.58-83.55,100.07-224.42,141.15-353.06,92.11-162.09-61.8-243.39-243.3-181.59-405.4,61.8-162.09,243.3-243.39,405.4-181.59Z"/>
  <path d="M2834.06,1838.22h-.01s-122.15,0-122.15,0c-6.59-61.31-22.59-119.8-46.52-174.01l105.7-61.02c23.65-13.66,31.83-44.18,18.18-67.84l-14.06-24.36c-13.66-23.65-44.19-31.83-67.84-18.18l-105.78,61.08c-35.69-48.67-78.68-91.65-127.34-127.34l61.08-105.79c13.65-23.65,5.47-54.18-18.18-67.84l-24.35-14.06c-23.65-13.66-54.18-5.48-67.84,18.18l-61.02,105.7c-54.21-23.94-112.7-39.93-174.01-46.53v-122.15c0-27.31-22.35-49.66-49.66-49.66h-28.13c-27.31,0-49.66,22.34-49.66,49.66v122.15c-53.1,5.71-104.08,18.47-151.99,37.34,1,20.27-6.57,40.28-20.98,54.69-7.67,7.67-16.75,13.4-26.65,16.95l19.96,129.29c68.9-48.35,152.83-76.73,243.39-76.73,234.28,0,424.19,189.92,424.19,424.19s-189.92,424.19-424.19,424.19c-153.49,0-287.93-81.52-362.41-203.63h-184.06c2.33,5.77,4.75,11.49,7.26,17.17l-105.7,61.02c-23.65,13.65-31.83,44.18-18.18,67.84l14.06,24.36c13.66,23.65,44.18,31.83,67.84,18.18l105.79-61.08c35.69,48.67,78.68,91.65,127.35,127.34l-61.08,105.79c-13.66,23.65-5.48,54.18,18.18,67.84l24.36,14.06c23.65,13.66,54.18,5.48,67.84-18.18l61.02-105.7c54.21,23.93,112.7,39.93,174.01,46.53v122.15c0,27.31,22.35,49.66,49.66,49.66h28.13c27.31,0,49.66-22.34,49.66-49.66v-122.15c61.31-6.6,119.8-22.59,174.01-46.53l61.02,105.7c13.66,23.65,44.19,31.83,67.84,18.18l24.35-14.06c23.65-13.66,31.83-44.19,18.18-67.84l-61.08-105.79c48.67-35.69,91.65-78.68,127.34-127.34l105.78,61.08c23.66,13.66,54.18,5.47,67.84-18.18l14.06-24.36c13.66-23.65,5.48-54.18-18.18-67.84l-105.7-61.02c23.93-54.21,39.93-112.7,46.52-174.01h122.15c27.31,0,49.66-22.35,49.66-49.66v-28.12c0-27.31-22.35-49.66-49.66-49.66Z"/>
  <path d="M2378.08,1650.02c-32.71-32.71-70.81-58.4-113.24-76.34-43.94-18.59-90.6-28.01-138.68-28.01s-94.74,9.42-138.68,28.01c-25.22,10.67-48.91,24.07-70.85,40.06,10.55,13.65,17.85,29.93,20.74,47.66,52.03-40.92,117.61-65.36,188.79-65.36,168.68,0,305.9,137.23,305.9,305.9s-137.22,305.9-305.9,305.9c-82.1,0-156.75-32.51-211.75-85.34h-68.08c8.64,10.93,17.95,21.4,27.91,31.36,32.71,32.71,70.81,58.4,113.24,76.34,43.94,18.59,90.59,28.01,138.68,28.01s94.74-9.42,138.68-28.01c42.43-17.95,80.53-43.63,113.24-76.34,32.71-32.71,58.4-70.81,76.34-113.24,18.58-43.94,28.01-90.6,28.01-138.68s-9.42-94.74-28.01-138.68h0c-17.95-42.43-43.63-80.53-76.34-113.24Z"/>
  <path d="M1405.81,2259.89h.01s-77.6-25.22-77.6-25.22c3.1-18.84,4.72-38.17,4.72-57.89,0-18.45-1.42-36.58-4.14-54.27h-53.74c3.21,17.6,4.89,35.74,4.89,54.27,0,165.83-134.43,300.26-300.26,300.26s-300.26-134.43-300.26-300.26,134.43-300.25,300.26-300.25c42.81,0,83.53,8.96,120.38,25.11,2.16-2.28,4.43-4.45,6.78-6.53-.3-2.92-.46-5.88-.46-8.87v-29.8c0-3.15.09-6.28.26-9.38-23.65-9.12-48.53-15.76-74.32-19.61v-81.6c0-2.94-2.41-5.35-5.35-5.35h-94.58c-2.94,0-5.35,2.41-5.35,5.35v81.6c-39.18,5.86-76.26,18.15-110.12,35.76l-47.96-66c-1.73-2.38-5.09-2.91-7.47-1.18l-76.52,55.59c-2.38,1.73-2.92,5.09-1.19,7.47l48,66.06c-27.52,27.12-50.62,58.72-68.11,93.62l-77.58-25.21c-2.8-.9-5.83.64-6.74,3.44l-29.23,89.95c-.91,2.8.63,5.83,3.43,6.74l77.6,25.21c-3.11,18.84-4.72,38.18-4.72,57.89s1.61,39.05,4.72,57.89l-77.6,25.21c-2.8.91-4.34,3.94-3.43,6.74l29.23,89.96c.91,2.79,3.94,4.34,6.74,3.43l77.58-25.21c17.49,34.9,40.58,66.49,68.11,93.61l-48,66.06c-1.73,2.38-1.19,5.74,1.19,7.47l76.52,55.6c2.38,1.73,5.74,1.19,7.47-1.18l47.96-66c33.86,17.62,70.94,29.9,110.12,35.76v81.61c0,2.94,2.41,5.35,5.35,5.35h94.58c2.94,0,5.35-2.41,5.35-5.35v-81.61c39.18-5.85,76.26-18.14,110.12-35.76l47.95,66c1.73,2.38,5.09,2.91,7.47,1.18l76.52-55.6c2.38-1.73,2.91-5.09,1.18-7.47l-47.99-66.06c27.52-27.12,50.62-58.72,68.11-93.61l77.58,25.21c2.79.91,5.83-.64,6.74-3.43l29.23-89.96c.91-2.8-.64-5.83-3.43-6.74Z"/>
</svg>