<?xml version="1.0" encoding="UTF-8"?>
<svg id="Layer_1" xmlns="http://www.w3.org/2000/svg" version="1.1" viewBox="0 0 3000 3000">
  <!-- Generator: Adobe Illustrator 30.0.0, SVG Export Plug-In . SVG Version: 2.1.1 Build 123)  -->
  <g>
    <g>
      <path d="M844.69,1512.16c-1.5.28-3.01.56-4.52.83-.79.14-1.58.28-2.36.42-1.88.32-3.76.63-5.64.93-1.07.17-2.13.33-3.2.49-.95.15-1.9.29-2.86.43-1.24.17-2.48.35-3.73.52-.54.07-1.08.14-1.61.21-2.79.36-5.58.7-8.38,1.01-.23.03-.47.06-.7.08-64.76,7.07-132.12-.7-197.17-25.5-126.88-48.37-217.17-150.95-254.55-271.29-.05,0-.1-.01-.16-.01-27.22-87.67-26.37-184.76,8.87-277.18,23.31-61.14,59.21-113.77,103.61-156.09l-.03.13c35.47-33.84,76.37-61.1,120.64-80.83v-291.04c-3.59-.63-7.24-.92-10.91-.85-7.34.12-14.75,1.69-21.84,4.87l-161.28,72.24c-28.18,12.62-40.91,46.02-28.29,74.2l32.73,73.07c-42.69,33.89-80.91,74.02-113.13,119.69l-74.77-28.5c-28.86-11-61.47,3.61-72.48,32.46l-62.95,165.13c-11,28.86,3.61,61.47,32.46,72.47l74.77,28.51c-6.37,55.52-4.56,110.92,4.73,164.63l-73.07,32.73c-28.18,12.62-40.92,46.02-28.29,74.2l72.24,161.28c9.87,22.04,32.45,34.63,55.3,33.03,6.42-.43,12.86-1.98,19.05-4.75l72.95-32.68c33.89,42.68,74.01,80.89,119.66,113.09l-28.5,74.77h0c-11.01,28.86,3.61,61.47,32.46,72.48l165.13,62.95c6.35,2.42,12.88,3.6,19.32,3.66,22.89.28,44.69-13.57,53.29-36.13l28.51-74.75c20.81,2.39,41.61,3.62,62.31,3.74,19.25.12,38.42-.73,57.44-2.52l25.23-162.19c-.1.02-.19.04-.29.06ZM1112.35,479.74c-4.27-3.33-9.09-6.08-14.39-8.1l-145.67-55.53v216.07c0,3.74,3.28,7.02,7.01,7.02h146.04c3.73,0,7.01-3.28,7.01-7.02v-5.76c-3.44-2.55-6.91-5.06-10.42-7.53l10.42-27.34v-111.81Z"/>
      <path d="M848.5,1397.53c-.62.17-1.25.34-1.88.51-1.37.37-2.74.72-4.11,1.07-.9.22-1.79.44-2.68.66-1.23.3-2.45.6-3.68.88-1.42.33-2.83.64-4.25.94-1.12.24-2.24.48-3.36.71-1.81.37-3.62.73-5.44,1.07-.7.13-1.41.25-2.12.38-1.68.3-3.37.59-5.06.87-.61.1-1.23.19-1.85.29-2.03.32-4.08.62-6.12.9-.24.03-.47.07-.7.1-50.15,6.7-102.63,1.35-153.23-17.94-41.54-15.83-77.77-39.53-107.65-68.75s-53.4-63.96-69.52-101.87c-.04.01-.08.02-.12.03-30.67-72.13-34.57-155.76-4.44-234.78,12.77-33.5,30.67-63.54,52.44-89.59.02.03.03.05.04.08,20.95-25.08,45.49-46.46,72.55-63.64-1.63-8.42-2.81-16.96-3.54-25.59-63.53,37.52-115.25,96.02-143.58,170.32-66.45,174.29,20.97,369.46,195.26,435.91,51.73,19.72,105.3,25.87,156.8,20.24.13-.02.26-.03.39-.05,2.54-.28,5.08-.58,7.6-.92.15-.02.3-.04.45-.06,5.13-.69,10.23-1.5,15.31-2.43.65-.11,1.29-.24,1.93-.36,1.76-.33,3.53-.68,5.29-1.04.85-.17,1.7-.34,2.54-.52,1.62-.35,3.24-.71,4.85-1.08.84-.19,1.69-.37,2.53-.57,2.16-.51,4.33-1.05,6.48-1.6,1.26-.32,2.51-.67,3.77-1,1.01-.28,2.02-.55,3.02-.83,1.01-.28,2.02-.57,3.04-.87l4.04-25.98c-4.96,1.63-9.96,3.13-15,4.51Z"/>
    </g>
    <g>
      <path d="M2683.11,1919.66h-122.16c-6.59-61.31-22.59-119.8-46.52-174.01l105.7-61.02c23.65-13.66,31.83-44.18,18.18-67.84l-14.06-24.36c-9.17-15.87-25.93-24.76-43.11-24.78-8.8-.21-17.75,1.91-25.88,6.6l-104.98,60.61c-35.62-48.47-78.49-91.3-126.99-126.87l61.08-105.79c13.65-23.65,5.47-54.18-18.18-67.84l-24.35-14.06c-8.14-4.7-17.08-6.81-25.88-6.6-17.19,0-33.97,8.89-43.14,24.78l-60.79,105.29c-53.94-23.71-112.11-39.56-173.06-46.12v-104.22c-8.86,5.96-19.28,9.16-30.19,9.16h-66.78l39.62,256.67c150.34,2.63,281.6,83.46,354.86,203.56h1.18c39.19,64.27,61.78,139.78,61.78,220.56,0,105.41-38.46,201.85-102.11,276.04,8.16,25.19,12.4,51.75,12.4,78.93v66.03c0,30.78-15.47,58-39.05,74.32,63.1,7.69,112.14,61.58,112.14,126.72v11.26c9.95-15.21,11.22-35.39,1.56-52.12l-61.08-105.79c48.67-35.69,91.65-78.68,127.34-127.34l105.78,61.08c23.66,13.66,54.18,5.47,67.84-18.18l14.06-24.36c13.66-23.65,5.48-54.18-18.18-67.84l-105.7-61.02c23.93-54.21,39.93-112.7,46.52-174.01h122.15c27.31,0,49.66-22.35,49.66-49.66v-28.12c0-27.31-22.35-49.66-49.66-49.66Z"/>
      <path d="M2303.47,1844.7c-17.95-42.43-43.63-80.53-76.34-113.24-32.71-32.71-70.81-58.4-113.24-76.34-38.76-16.4-79.64-25.66-121.74-27.61l7.89,51.07c71.83,6.05,136.67,37.03,185.82,84.24h1.09c58,55.7,94.16,133.99,94.16,220.56,0,62.56-18.88,120.78-51.23,169.29,1.51,1.44,3.01,2.9,4.5,4.39,10.97,10.97,20.83,22.75,29.51,35.19,15.78-21.75,29.02-45.22,39.58-70.19,18.58-43.94,28.01-90.6,28.01-138.68s-9.42-94.74-28.01-138.68Z"/>
    </g>
  </g>
  <g>
    <path d="M1146.73,406.27v225.91c0,27.24-22.29,49.51-49.51,49.51h-146.03c-27.24,0-49.51-22.29-49.51-49.51v-238.95c0-17.28-14.01-31.29-31.29-31.29h-200.43c-23.48,0-42.68,19.22-42.68,42.7v378.43c0,110.75,90.61,201.35,201.35,201.35l.02.02h1139.73c107.38,0,195.24-87.86,195.24-195.24v-384.54c0-23.48-19.22-42.7-42.68-42.7h-190.82c-25.02,0-45.31,20.29-45.31,45.31v224.9c0,27.24-22.29,49.51-49.51,49.51h-146.03c-27.24,0-49.51-22.29-49.51-49.51v-232.33c0-20.91-16.95-37.88-37.88-37.88h-410.84c-24.47,0-44.3,19.83-44.3,44.3Z"/>
    <path d="M1987.52,1868.24h-9.32l-93.88-608.15h116.35c3.23,0,6.18-1.32,8.31-3.45,2.66-2.66,3.74-6.51,3.17-10.2l-27.15-175.94c0-6.46-5.3-11.76-11.76-11.76H809.92c-6.46,0-11.76,5.3-11.76,11.76l-32.89,175.61c-.86,4.57.92,9.37,4.77,11.98,1.87,1.28,4.13,2.02,6.57,2.02h142.45l-94.59,608.15h-40.02l-.02-.02c-47.73,0-86.8,39.07-86.8,86.8v16.16c0,47.73,39.07,86.8,86.8,86.8h1209.37c1.25,0,2.48-.2,3.63-.57,43.12-4.97,76.89-41.84,76.89-86.23v-16.16c0-47.73-39.07-86.8-86.8-86.8Z"/>
    <path d="M760.01,2124.21c-121.96,0-221.76,99.8-221.76,221.76v65.52c0,22.38,18.31,40.7,40.7,40.7v.02h1632.34c26.3,0,47.82-21.52,47.82-47.82v-66.03c0-117.78-96.37-214.15-214.15-214.15H760.01Z"/>
    <path d="M2332.2,2731.71v-126.29c0-46.85-38.32-85.18-85.18-85.18H545.03c-46.41,0-84.38,37.97-84.38,84.38v127.87c0,28.32,23.17,51.49,51.49,51.49h1767.78c28.76,0,52.28-23.53,52.28-52.28Z"/>
  </g>
</svg>