<?xml version="1.0" encoding="UTF-8"?>
<svg id="Layer_1" xmlns="http://www.w3.org/2000/svg" version="1.1" viewBox="0 0 3000 3000">
  <!-- Generator: Adobe Illustrator 30.0.0, SVG Export Plug-In . SVG Version: 2.1.1 Build 123)  -->
  <defs>
    <style>
      .st0 {
        fill: #fff;
      }
    </style>
  </defs>
  <g>
    <path class="st0" d="M863.7,683.7c40,0,80.66,7.15,120.26,22.25,91.6,34.93,159.21,105.4,193.09,189.71h-1.75c-7.81,0-15.39,1.04-22.59,3-32.24-75.83-94.09-138.95-177.17-170.62-36.81-14.04-74.66-20.69-111.84-20.69-126.55,0-245.79,77.01-293.56,202.28-61.8,162.1,19.5,343.6,181.59,405.4,36.82,14.03,74.65,20.69,111.84,20.69,92.75,0,181.58-41.37,241.22-112.8,3.65,7.55,7.89,14.76,12.65,21.58-64.01,72.85-156.96,114.87-253.87,114.87-40,0-80.66-7.15-120.26-22.25-174.29-66.45-261.71-261.62-195.26-435.91,51.35-134.7,179.59-217.51,315.65-217.51M863.7,627.7c-39.3,0-78.34,5.9-116.02,17.54-37.31,11.52-72.62,28.45-104.95,50.32-67.19,45.46-118.02,109.67-147.01,185.7-18.93,49.64-27.56,101.54-25.67,154.25,1.83,50.88,13.35,100.34,34.24,146.98,20.9,46.65,50.12,88.17,86.87,123.41,38.07,36.51,82.55,64.61,132.19,83.54,45.12,17.2,92.29,25.92,140.21,25.92,27.97,0,56.05-3.02,83.45-8.98,27.07-5.89,53.62-14.67,78.9-26.11,25.29-11.44,49.42-25.58,71.72-42.03,22.58-16.66,43.4-35.76,61.87-56.79,17.02-19.37,18.61-47.87,3.85-69.01-3.09-4.43-5.84-9.11-8.15-13.9-8.28-17.13-24.69-28.88-43.56-31.21-2.29-.28-4.58-.42-6.86-.42-16.48,0-32.27,7.28-42.98,20.11-49.18,58.91-121.44,92.69-198.24,92.69-31.35,0-62.27-5.73-91.89-17.02-132.97-50.7-199.91-200.14-149.21-333.12,37.91-99.43,134.85-166.23,241.23-166.23,31.36,0,62.27,5.73,91.9,17.02,66.17,25.22,117.87,75.01,145.58,140.2,8.96,21.08,29.54,34.1,51.52,34.1,4.88,0,9.82-.64,14.72-1.97,2.52-.69,5.17-1.03,7.88-1.03h1.75c18.6,0,35.98-9.23,46.4-24.64,10.41-15.41,12.5-34.98,5.56-52.24-20.03-49.85-49.41-94.31-87.3-132.13-39.25-39.17-85.61-69.13-137.8-89.02-45.12-17.2-92.29-25.93-140.21-25.93h0Z"/>
    <path class="st0" d="M1010.67,332.05c6.62,0,13.33,1.18,19.86,3.67l165.13,62.96c28.85,11,43.47,43.61,32.46,72.47l-28.5,74.77c45.67,32.22,85.8,70.45,119.69,113.14l73.07-32.73c7.39-3.31,15.15-4.88,22.79-4.88,21.49,0,42.1,12.38,51.41,33.17l72.24,161.29c12.63,28.18-.11,61.58-28.29,74.2l-12.4,5.55h-85.85c-31.64,0-59.4,16.99-74.63,42.32-13.29-24.33-38.71-41.14-68.07-42.26-37.38-120.34-127.67-222.92-254.55-271.29-49.82-19-101-28-151.32-28-171.21,0-332.56,104.2-397.19,273.7-83.62,219.31,26.38,464.89,245.7,548.51,49.81,18.99,101,28,151.32,28,109.54,0,215.03-42.65,293.75-117.77l-4.39,23.46c-5.31,28.32,6.63,57.02,30.41,73.13,8.33,5.63,17.63,9.43,27.38,11.22l-23.64,151.99c-34.59,14.21-60.09,46.16-65.13,84.46l-52.66,23.59c-7.39,3.31-15.15,4.88-22.79,4.88-21.49,0-42.1-12.38-51.41-33.17l-32.73-73.07c-32.43,5.61-65.49,8.49-98.81,8.49-21.86,0-43.82-1.24-65.82-3.76l-28.51,74.77c-8.51,22.33-29.97,36.13-52.61,36.13-6.62,0-13.33-1.18-19.86-3.67l-165.13-62.95c-28.85-11.01-43.47-43.62-32.46-72.48h-.01l28.5-74.77c-45.67-32.21-85.8-70.44-119.69-113.13l-73.07,32.73c-7.39,3.31-15.15,4.88-22.79,4.88-21.49,0-42.1-12.38-51.41-33.17l-72.24-161.28c-12.63-28.18.11-61.58,28.29-74.2l73.07-32.73c-9.29-53.71-11.1-109.11-4.73-164.63l-74.77-28.51c-28.85-11-43.46-43.61-32.46-72.47l62.95-165.13c8.52-22.33,29.98-36.12,52.62-36.12,6.62,0,13.33,1.18,19.86,3.67l74.77,28.5c32.22-45.67,70.44-85.8,113.13-119.69l-32.73-73.07c-12.62-28.18.11-61.58,28.29-74.2l161.28-72.24c7.39-3.31,15.15-4.88,22.79-4.88,21.49,0,42.1,12.38,51.41,33.17l32.73,73.07c32.43-5.61,65.49-8.49,98.81-8.49,21.86,0,43.82,1.24,65.82,3.76l28.51-74.76c8.51-22.33,29.97-36.14,52.61-36.14M1010.67,276.05c-22.47,0-44.22,6.66-62.91,19.26-19.24,12.97-33.78,31.28-42.03,52.93l-13.57,35.58c-9.49-.43-18.98-.64-28.43-.64-21.59,0-43.28,1.12-64.85,3.33l-15.59-34.8c-18.03-40.26-58.27-66.28-102.52-66.28-15.84,0-31.22,3.29-45.69,9.78l-161.27,72.24c-56.43,25.27-81.78,91.75-56.51,148.2l15.59,34.8c-23.01,21.01-44.43,43.68-64.1,67.82l-35.6-13.57c-12.77-4.87-26.17-7.34-39.8-7.34-22.46,0-44.21,6.66-62.9,19.25-19.24,12.97-33.78,31.26-42.04,52.91l-62.96,165.15c-22.02,57.78,7.06,122.71,64.84,144.74l35.6,13.57c-1.4,31.1-.5,62.27,2.68,93.28l-34.79,15.58c-27.28,12.22-48.19,34.38-58.88,62.42-10.69,28.04-9.85,58.51,2.38,85.79l72.23,161.27c18.03,40.26,58.27,66.28,102.52,66.28,15.84,0,31.2-3.29,45.68-9.77l34.8-15.59c21.02,23.02,43.68,44.44,67.82,64.1l-13.57,35.6c-.17.44-.33.89-.49,1.33-21.08,57.43,7.99,121.53,65.32,143.41l165.15,62.96c12.78,4.87,26.17,7.34,39.81,7.34,22.46,0,44.22-6.66,62.9-19.25,19.24-12.97,33.78-31.27,42.03-52.92l13.57-35.6c9.49.43,18.98.64,28.43.64,21.59,0,43.28-1.12,64.85-3.33l15.59,34.8c18.03,40.26,58.27,66.28,102.52,66.28,15.84,0,31.22-3.29,45.69-9.78l52.65-23.59c17.74-7.95,30.09-24.53,32.63-43.8,2.34-17.79,14.18-33.1,30.89-39.97,18.13-7.45,31.04-23.83,34.05-43.19l23.64-151.99c4.66-29.97-15.39-58.21-45.22-63.69-2.16-.4-4.23-1.25-6.13-2.53-5.29-3.61-7.93-10.05-6.74-16.42l4.39-23.48c4.47-23.89-6.98-47.94-28.35-59.53-8.4-4.55-17.57-6.77-26.68-6.77-14.08,0-28,5.3-38.68,15.49-69.12,65.96-159.71,102.28-255.09,102.28-44.84,0-89.04-8.18-131.37-24.32-92.1-35.11-165.01-103.99-205.3-193.94-40.29-89.95-43.14-190.2-8.03-282.3,54.2-142.15,192.78-237.65,344.86-237.65,44.84,0,89.04,8.18,131.37,24.33,106.58,40.63,187.14,126.5,221.02,235.58,7.04,22.67,27.62,38.44,51.34,39.35,8.74.33,16.81,5.37,21.06,13.15,9.62,17.61,27.93,28.73,47.99,29.14.39,0,.78.01,1.16.01,19.62,0,37.85-10.28,47.99-27.14,5.71-9.5,15.67-15.18,26.64-15.18h85.85c7.88,0,15.68-1.66,22.88-4.89l12.4-5.55c27.29-12.22,48.21-34.39,58.9-62.43,10.69-28.04,9.85-58.51-2.38-85.79l-72.23-161.28c-18.03-40.26-58.27-66.28-102.52-66.28-15.84,0-31.2,3.29-45.68,9.77l-34.8,15.59c-21.02-23.02-43.68-44.44-67.82-64.11l13.57-35.6c10.65-27.92,9.76-58.39-2.51-85.78-12.27-27.38-34.4-48.32-62.33-58.97l-165.13-62.96c-12.78-4.87-26.17-7.34-39.81-7.34h0Z"/>
    <path class="st0" d="M1771.71,1281.45c2.94,0,5.35,2.41,5.35,5.35l12.35,80.02c.26,1.68-.23,3.43-1.44,4.64-.97.97-2.31,1.57-3.78,1.57h-52.92l42.7,276.6h4.24c21.71,0,39.48,17.77,39.48,39.48v7.35c0,20.19-15.36,36.96-34.97,39.22-.52.17-1.08.26-1.65.26h-550.05c-21.71,0-39.48-17.77-39.48-39.48v-7.35c0-21.7,17.76-39.47,39.46-39.47h18.23l43.02-276.6h-64.79c-1.11,0-2.14-.34-2.99-.92-1.75-1.19-2.56-3.37-2.17-5.45l14.96-79.87c0-2.94,2.41-5.35,5.35-5.35h529.1M1771.71,1225.45h-529.1c-31.15,0-56.95,23.34-60.84,53.44l-14.51,77.47c-4.5,24,5.59,48.36,25.7,62.05,0,0,.01,0,.02.01,0,0,0,0,0,0,10.04,6.83,21.75,10.49,33.89,10.61l-26.38,169.61c-37.72,12.76-64.95,48.49-64.95,90.47v7.35c0,52.65,42.83,95.48,95.48,95.48h550.05c3.9,0,7.77-.37,11.58-1.1,21.76-3.33,41.73-14.12,56.56-30.61,15.79-17.56,24.48-40.21,24.48-63.77v-7.35c0-36.16-20.2-67.68-49.91-83.89l-27.39-177.4c11.73-2.36,22.52-8.11,31.18-16.77,13.75-13.75,20.17-33.49,17.18-52.8l-12.04-77.99c-3.27-30.77-29.38-54.81-61-54.81h0Z"/>
    <path class="st0" d="M1270.11,964.53c7.86,0,14.23,6.37,14.23,14.23v108.68c0,12.38,10.13,22.52,22.52,22.52h66.42c12.38,0,22.52-10.13,22.52-22.52v-102.75c0-11.13,9.02-20.15,20.15-20.15h186.86c9.52,0,17.23,7.72,17.23,17.23v105.67c0,12.38,10.13,22.52,22.52,22.52h66.42c12.38,0,22.52-10.13,22.52-22.52v-102.29c0-11.38,9.23-20.61,20.61-20.61h86.79c10.67,0,19.41,8.74,19.41,19.42v174.9c0,48.84-39.96,88.8-88.8,88.8h-518.38s-.01,0-.01,0c-50.37,0-91.58-41.21-91.58-91.58v-172.12c0-10.68,8.73-19.42,19.41-19.42h91.16M1270.11,908.53h-91.16c-41.58,0-75.41,33.83-75.41,75.42v172.12c0,81.38,66.2,147.58,147.58,147.58h518.39c79.84,0,144.8-64.95,144.8-144.79v-174.9c0-41.59-33.83-75.42-75.41-75.42h-86.79c-39.58,0-72.25,30.17-76.21,68.72-2.34-38.29-34.23-68.72-73.09-68.72h-186.86c-39.07,0-71.35,29.57-75.66,67.5-1.43-37.47-32.36-67.51-70.18-67.51h0Z"/>
    <path class="st0" d="M1804.34,1766.05c53.57,0,97.4,43.83,97.4,97.4v30.03c0,11.96-9.79,21.75-21.75,21.75h-742.43c-10.18-.01-18.51-8.34-18.51-18.52v-29.8c0-55.47,45.39-100.86,100.86-100.86h584.43M1804.34,1710.05h-584.43c-21.12,0-41.66,4.18-61.06,12.42-18.64,7.92-35.39,19.23-49.77,33.61-14.38,14.38-25.69,31.13-33.61,49.77-8.24,19.39-12.42,39.94-12.42,61.06v29.8c0,41.09,33.42,74.51,74.51,74.51h742.43c42.87.01,77.75-34.87,77.75-77.74v-30.03c0-84.59-68.81-153.4-153.4-153.4h0Z"/>
    <path class="st0" d="M1896.24,1946.18c21.31,0,38.74,17.43,38.74,38.74v57.44c0,13.08-10.7,23.78-23.78,23.78h-804.03c-12.88,0-23.42-10.54-23.42-23.42v-58.16c0-21.11,17.27-38.38,38.38-38.38h774.11M1896.24,1890.18h-774.11c-52.04,0-94.38,42.34-94.38,94.38v58.16c0,43.79,35.63,79.42,79.42,79.42h804.03c43.99,0,79.78-35.79,79.78-79.78v-57.44c0-52.24-42.5-94.74-94.74-94.74h0Z"/>
    <path class="st0" d="M2068.28,1554.14c48.08,0,94.74,9.42,138.68,28.01,21.22,8.97,41.35,19.88,60.26,32.63,18.92,12.75,36.62,27.35,52.98,43.71,32.71,32.71,58.39,70.81,76.34,113.24,18.59,43.94,28.01,90.6,28.01,138.68s-9.43,94.74-28.01,138.68c-17.94,42.43-43.63,80.53-76.34,113.24-32.71,32.71-70.81,58.39-113.24,76.34-43.94,18.59-90.59,28.01-138.68,28.01s-94.74-9.42-138.68-28.01c-42.43-17.94-80.53-43.63-113.24-76.34-9.96-9.96-19.27-20.43-27.91-31.36h68.08c55,52.83,129.65,85.34,211.75,85.34,168.68,0,305.9-137.23,305.9-305.9s-137.22-305.9-305.9-305.9c-71.18,0-136.76,24.44-188.79,65.36-2.89-17.73-10.19-34.01-20.74-47.66,21.94-15.99,45.63-29.39,70.85-40.06,43.94-18.59,90.6-28.01,138.68-28.01M2068.28,1498.14c-55.63,0-109.63,10.91-160.5,32.44-29.07,12.3-56.66,27.9-82.01,46.38-12.22,8.91-20.32,22.38-22.46,37.36-2.13,14.97,1.88,30.18,11.13,42.14,5.08,6.57,8.46,14.32,9.78,22.42,3.19,19.56,16.48,35.98,34.95,43.17,6.58,2.56,13.47,3.82,20.32,3.82,12.37,0,24.6-4.1,34.62-11.98,44.4-34.92,97.71-53.38,154.17-53.38,137.8,0,249.9,112.1,249.9,249.9s-112.1,249.9-249.9,249.9c-64.72,0-126.15-24.76-172.96-69.73-10.43-10.02-24.33-15.61-38.79-15.61h-68.08c-21.47,0-41.05,12.27-50.4,31.59-9.36,19.32-6.84,42.29,6.47,59.13,9.98,12.62,20.83,24.81,32.24,36.23,37.85,37.85,81.93,67.56,131.03,88.32,50.86,21.52,104.86,32.43,160.49,32.43s109.63-10.91,160.5-32.44c49.11-20.78,93.19-50.49,131.02-88.32s67.56-81.93,88.32-131.03c21.52-50.89,32.43-104.89,32.43-160.49s-10.91-109.63-32.44-160.5c-20.78-49.11-50.49-93.19-88.32-131.02-18.83-18.83-39.45-35.84-61.28-50.55-21.86-14.74-45.33-27.45-69.75-37.77-50.86-21.52-104.86-32.43-160.48-32.43h0Z"/>
    <path class="st0" d="M2082.38,1152.87c27.31,0,49.66,22.35,49.66,49.66v122.15c61.31,6.6,119.8,22.59,174.01,46.53l61.02-105.7c9.17-15.89,25.96-24.8,43.15-24.8,8.41,0,16.92,2.13,24.69,6.62l24.35,14.06c23.65,13.66,31.83,44.19,18.18,67.84l-61.08,105.79c48.66,35.69,91.65,78.67,127.34,127.34l105.78-61.08c7.76-4.48,16.27-6.61,24.68-6.61,17.2,0,33.98,8.9,43.16,24.79l14.06,24.36c13.65,23.66,5.47,54.18-18.18,67.84l-105.7,61.02c23.93,54.21,39.93,112.7,46.52,174.01h122.16c27.31,0,49.66,22.35,49.66,49.66v28.12c0,27.31-22.35,49.66-49.66,49.66h-122.15c-6.59,61.31-22.59,119.8-46.52,174.01l105.7,61.02c23.66,13.66,31.84,44.19,18.18,67.84l-14.06,24.36c-9.17,15.88-25.96,24.79-43.15,24.79-8.41,0-16.92-2.13-24.69-6.61l-105.78-61.08c-35.69,48.66-78.67,91.65-127.34,127.34l61.08,105.79c13.65,23.65,5.47,54.18-18.18,67.84l-24.35,14.06c-7.76,4.48-16.27,6.61-24.68,6.61-17.2,0-33.98-8.9-43.16-24.79l-61.02-105.7c-54.21,23.94-112.7,39.93-174.01,46.53v122.15c0,27.32-22.35,49.66-49.66,49.66h-28.13c-27.31,0-49.66-22.35-49.66-49.66v-122.15c-61.31-6.6-119.8-22.6-174.01-46.53l-61.02,105.7c-9.17,15.89-25.96,24.8-43.15,24.8-8.41,0-16.92-2.13-24.69-6.62l-24.36-14.06c-23.66-13.66-31.84-44.19-18.18-67.84l61.08-105.79c-48.67-35.69-91.66-78.67-127.35-127.34l-105.79,61.08c-7.77,4.48-16.28,6.61-24.69,6.61-17.2,0-33.98-8.9-43.15-24.79l-14.06-24.36c-13.65-23.66-5.47-54.19,18.18-67.84l105.7-61.02c-2.51-5.68-4.93-11.4-7.26-17.17h184.06c74.48,122.11,208.92,203.63,362.41,203.63,234.27,0,424.19-189.92,424.19-424.19s-189.91-424.19-424.19-424.19c-90.56,0-174.49,28.38-243.39,76.73l-19.96-129.29c9.9-3.55,18.98-9.28,26.65-16.95,14.41-14.41,21.98-34.42,20.98-54.69,47.91-18.87,98.89-31.63,151.99-37.34v-122.15c0-27.32,22.35-49.66,49.66-49.66h28.13M2082.38,1096.87h-28.13c-58.26,0-105.66,47.4-105.66,105.66v73.84c-39.82,7.48-78.84,18.7-116.51,33.54-22.35,8.8-36.59,30.87-35.41,54.86.23,4.59-1.51,9.2-4.65,12.33-1.76,1.76-3.76,3.05-5.95,3.83-25.25,9.06-40.54,34.75-36.44,61.26l19.96,129.29c2.95,19.13,15.58,35.38,33.39,42.97,7.05,3,14.52,4.48,21.95,4.48,11.34,0,22.6-3.44,32.17-10.16,62.06-43.55,135.1-66.57,211.22-66.57,203.02,0,368.19,165.17,368.19,368.19s-165.17,368.19-368.19,368.19c-129.47,0-247.08-66.09-314.6-176.79-10.17-16.67-28.28-26.84-47.81-26.84h-184.06c-18.61,0-36.01,9.25-46.42,24.68-4.07,6.04-6.87,12.71-8.34,19.63l-71.67,41.37c-50.44,29.11-67.8,93.86-38.69,144.32l14.07,24.37c18.81,32.57,53.93,52.8,91.66,52.8,18.46,0,36.68-4.88,52.67-14.1l64.04-36.97c21.09,24.52,43.98,47.4,68.5,68.5l-36.96,64.02c-14.09,24.39-17.82,52.86-10.5,80.16,7.32,27.3,24.78,50.09,49.18,64.18l24.37,14.06c15.98,9.23,34.2,14.12,52.68,14.12,37.73,0,72.85-20.23,91.65-52.8l36.89-63.9c30.53,10.7,61.81,19.06,93.64,25.04v73.84c0,58.26,47.4,105.66,105.66,105.66h28.13c58.26,0,105.66-47.4,105.66-105.66v-73.84c31.84-5.98,63.12-14.34,93.64-25.04l36.89,63.9c18.81,32.57,53.93,52.79,91.66,52.79,18.47,0,36.68-4.88,52.67-14.11l24.36-14.07c50.45-29.14,67.8-93.88,38.68-144.33l-36.97-64.03c24.51-21.09,47.39-43.97,68.49-68.49l64.01,36.96c16,9.24,34.22,14.12,52.69,14.12,37.72,0,72.84-20.23,91.65-52.79l14.07-24.37c14.08-24.38,17.81-52.85,10.5-80.15-7.32-27.3-24.78-50.09-49.18-64.18l-63.9-36.89c10.7-30.53,19.06-61.82,25.03-93.64h73.84c58.26,0,105.66-47.4,105.66-105.66v-28.12c0-58.26-47.4-105.66-105.66-105.66h-73.85c-5.97-31.82-14.34-63.11-25.03-93.64l63.9-36.89c50.44-29.14,67.79-93.88,38.69-144.32l-14.07-24.37c-18.81-32.57-53.93-52.8-91.66-52.8-18.47,0-36.68,4.88-52.67,14.11l-64.02,36.97c-21.09-24.51-43.97-47.39-68.49-68.49l36.97-64.02c29.12-50.46,11.77-115.2-38.67-144.33l-24.36-14.06c-15.99-9.24-34.21-14.12-52.69-14.12-37.73,0-72.85,20.23-91.65,52.8l-36.89,63.9c-30.52-10.7-61.81-19.06-93.64-25.04v-73.84c0-58.26-47.4-105.66-105.66-105.66h0Z"/>
  </g>
  <path class="st0" d="M3897.84,683.92c40,0,80.66,7.15,120.26,22.25,91.6,34.93,159.21,105.4,193.09,189.71h-1.75c-7.81,0-15.39,1.04-22.59,3-32.24-75.83-94.09-138.95-177.17-170.62-36.81-14.04-74.66-20.69-111.84-20.69-126.55,0-245.79,77.01-293.56,202.28-61.8,162.1,19.5,343.6,181.59,405.4,36.82,14.03,74.65,20.69,111.84,20.69,92.75,0,181.58-41.37,241.22-112.8,3.65,7.55,7.89,14.76,12.65,21.58-64.01,72.85-156.97,114.87-253.87,114.87-40,0-80.66-7.15-120.26-22.25-174.29-66.45-261.71-261.62-195.26-435.91,51.35-134.7,179.59-217.51,315.65-217.51M3897.84,627.92c-39.3,0-78.34,5.9-116.02,17.54-37.31,11.52-72.62,28.45-104.95,50.32-67.19,45.46-118.02,109.67-147.01,185.7-18.93,49.64-27.56,101.54-25.67,154.25,1.83,50.88,13.35,100.34,34.24,146.98,20.9,46.65,50.12,88.17,86.87,123.41,38.07,36.51,82.55,64.61,132.19,83.54,45.12,17.2,92.29,25.92,140.21,25.92,27.97,0,56.05-3.02,83.45-8.98,27.07-5.89,53.62-14.67,78.9-26.11,25.29-11.44,49.42-25.58,71.72-42.03,22.58-16.66,43.4-35.76,61.87-56.79,17.02-19.37,18.61-47.87,3.85-69.01-3.09-4.43-5.84-9.11-8.15-13.9-8.28-17.12-24.69-28.88-43.56-31.2-2.29-.28-4.58-.42-6.86-.42-16.48,0-32.27,7.28-42.98,20.11-49.18,58.91-121.44,92.69-198.24,92.69-31.35,0-62.27-5.73-91.89-17.02-132.97-50.7-199.91-200.14-149.21-333.12,37.91-99.43,134.85-166.23,241.23-166.23,31.36,0,62.27,5.73,91.9,17.02,66.17,25.22,117.87,75.01,145.58,140.2,8.96,21.08,29.54,34.1,51.52,34.1,4.88,0,9.82-.64,14.72-1.97,2.52-.69,5.17-1.03,7.88-1.03h1.75c18.6,0,35.98-9.23,46.4-24.64,10.41-15.41,12.5-34.98,5.56-52.24-20.03-49.85-49.41-94.31-87.3-132.13-39.25-39.17-85.61-69.13-137.8-89.02-45.12-17.2-92.29-25.93-140.21-25.93h0Z"/>
  <path class="st0" d="M4044.82,332.28c6.62,0,13.33,1.18,19.86,3.67l165.13,62.96c28.85,11,43.47,43.61,32.46,72.47l-28.5,74.77c45.67,32.22,85.8,70.45,119.69,113.14l73.07-32.73c7.39-3.31,15.15-4.88,22.79-4.88,21.49,0,42.1,12.38,51.41,33.17l72.24,161.29c12.63,28.18-.11,61.58-28.29,74.2l-12.4,5.55h-85.85c-31.64,0-59.4,16.99-74.63,42.32-13.29-24.33-38.71-41.14-68.07-42.26-37.38-120.34-127.67-222.92-254.55-271.29-49.82-19-101-28-151.32-28-171.21,0-332.56,104.2-397.19,273.7-83.62,219.31,26.38,464.89,245.7,548.51,49.81,18.99,101,28,151.32,28,109.54,0,215.03-42.65,293.75-117.77l-4.39,23.46c-5.31,28.32,6.63,57.02,30.41,73.13,8.33,5.63,17.63,9.43,27.38,11.22l-23.64,151.99c-34.59,14.21-60.09,46.16-65.13,84.46l-52.66,23.59c-7.39,3.31-15.15,4.88-22.79,4.88-21.49,0-42.1-12.38-51.41-33.17l-32.73-73.07c-32.43,5.61-65.49,8.49-98.81,8.49-21.86,0-43.82-1.24-65.82-3.76l-28.51,74.77c-8.51,22.33-29.97,36.13-52.61,36.13-6.62,0-13.33-1.18-19.86-3.67l-165.13-62.95c-28.85-11.01-43.47-43.62-32.46-72.48h-.01l28.5-74.77c-45.67-32.21-85.8-70.44-119.69-113.13l-73.07,32.73c-7.39,3.31-15.15,4.88-22.79,4.88-21.49,0-42.1-12.38-51.41-33.17l-72.24-161.28c-12.63-28.18.11-61.58,28.29-74.2l73.07-32.73c-9.29-53.71-11.1-109.11-4.73-164.63l-74.77-28.51c-28.85-11-43.46-43.61-32.46-72.47l62.95-165.13c8.52-22.33,29.98-36.12,52.62-36.12,6.62,0,13.33,1.18,19.86,3.67l74.77,28.5c32.22-45.67,70.44-85.8,113.13-119.69l-32.73-73.07c-12.62-28.18.11-61.58,28.29-74.2l161.28-72.24c7.39-3.31,15.15-4.88,22.79-4.88,21.49,0,42.1,12.38,51.41,33.17l32.73,73.07c32.43-5.61,65.49-8.49,98.81-8.49,21.86,0,43.82,1.24,65.82,3.76l28.51-74.76c8.51-22.33,29.97-36.14,52.61-36.14M4044.82,276.28c-22.47,0-44.22,6.66-62.91,19.26-19.24,12.97-33.78,31.28-42.03,52.93l-13.57,35.58c-9.49-.43-18.98-.64-28.43-.64-21.59,0-43.28,1.12-64.85,3.33l-15.59-34.8c-18.03-40.26-58.27-66.28-102.52-66.28-15.84,0-31.22,3.29-45.69,9.78l-161.27,72.24c-27.28,12.22-48.19,34.39-58.88,62.42-10.69,28.03-9.84,58.49,2.37,85.77l15.59,34.8c-23.01,21.01-44.43,43.68-64.1,67.82l-35.6-13.57c-12.77-4.87-26.17-7.34-39.8-7.34-22.46,0-44.21,6.66-62.9,19.25-19.24,12.97-33.78,31.26-42.04,52.91l-62.96,165.15c-22.02,57.78,7.06,122.71,64.84,144.74l35.6,13.57c-1.4,31.1-.5,62.27,2.68,93.28l-34.79,15.58c-27.28,12.22-48.19,34.38-58.88,62.42-10.69,28.04-9.85,58.51,2.38,85.79l72.23,161.27c18.03,40.26,58.27,66.28,102.52,66.28,15.84,0,31.2-3.29,45.68-9.77l34.8-15.59c21.02,23.02,43.68,44.44,67.82,64.1l-13.57,35.6c-.17.44-.33.89-.49,1.33-21.08,57.43,7.99,121.53,65.32,143.41l165.15,62.96c12.78,4.87,26.17,7.34,39.81,7.34,22.46,0,44.22-6.66,62.9-19.25,19.24-12.97,33.78-31.27,42.03-52.92l13.57-35.6c9.49.43,18.98.64,28.43.64,21.59,0,43.28-1.12,64.85-3.33l15.59,34.8c18.03,40.26,58.27,66.28,102.52,66.28,15.84,0,31.22-3.29,45.69-9.78l52.65-23.59c17.74-7.95,30.09-24.53,32.63-43.8,2.34-17.79,14.18-33.1,30.89-39.97,18.13-7.45,31.04-23.83,34.05-43.19l23.64-151.99c4.66-29.97-15.39-58.21-45.22-63.69-2.16-.4-4.22-1.25-6.11-2.52-5.3-3.6-7.94-10.05-6.75-16.43l4.39-23.48c4.47-23.89-6.98-47.94-28.35-59.53-8.4-4.55-17.57-6.77-26.68-6.77-14.08,0-28,5.3-38.68,15.49-69.12,65.96-159.71,102.28-255.09,102.28-44.84,0-89.04-8.18-131.37-24.32-92.1-35.11-165.01-103.99-205.3-193.94-40.29-89.95-43.14-190.2-8.03-282.3,54.2-142.15,192.78-237.65,344.86-237.65,44.84,0,89.04,8.18,131.37,24.33,106.58,40.63,187.14,126.5,221.02,235.58,7.04,22.67,27.62,38.44,51.34,39.35,8.74.33,16.81,5.37,21.06,13.15,9.62,17.61,27.93,28.73,47.99,29.14.39,0,.78.01,1.16.01,19.62,0,37.85-10.28,47.99-27.14,5.71-9.5,15.67-15.18,26.64-15.18h85.85c7.89,0,15.68-1.66,22.88-4.89l12.4-5.55c27.29-12.22,48.21-34.39,58.9-62.43,10.69-28.04,9.85-58.51-2.38-85.79l-72.23-161.28c-18.03-40.26-58.27-66.28-102.52-66.28-15.84,0-31.2,3.29-45.68,9.77l-34.8,15.59c-21.02-23.02-43.68-44.44-67.82-64.11l13.57-35.6c10.65-27.92,9.76-58.39-2.51-85.78-12.27-27.38-34.4-48.32-62.33-58.97l-165.13-62.96c-12.78-4.87-26.17-7.34-39.81-7.34h0Z"/>
  <path class="st0" d="M4805.86,1281.67c2.94,0,5.35,2.41,5.35,5.35l12.35,80.02c.26,1.68-.23,3.43-1.44,4.64-.97.97-2.31,1.57-3.78,1.57h-52.92l42.7,276.6h4.24c21.71,0,39.48,17.77,39.48,39.48v7.35c0,20.19-15.36,36.96-34.97,39.22-.52.17-1.08.26-1.65.26h-550.05c-21.71,0-39.48-17.77-39.48-39.48v-7.35c0-21.7,17.76-39.47,39.46-39.47h18.23l43.02-276.6h-64.79c-1.11,0-2.14-.34-2.99-.92-1.75-1.19-2.56-3.37-2.17-5.45l14.96-79.87c0-2.94,2.41-5.35,5.35-5.35h529.1M4805.86,1225.67h-529.1c-31.15,0-56.95,23.34-60.84,53.44l-14.51,77.47c-4.5,24.01,5.59,48.36,25.7,62.05,0,0,.01,0,.02.01,0,0,0,0,0,0,10.04,6.83,21.75,10.49,33.89,10.61l-26.38,169.61c-37.72,12.76-64.95,48.49-64.95,90.47v7.35c0,52.65,42.83,95.48,95.48,95.48h550.05c3.9,0,7.77-.37,11.58-1.1,21.76-3.33,41.73-14.12,56.56-30.61,15.79-17.56,24.48-40.21,24.48-63.77v-7.35c0-36.16-20.2-67.68-49.91-83.89l-27.39-177.4c11.73-2.36,22.52-8.11,31.18-16.77,13.74-13.74,20.17-33.47,17.18-52.79l-12.04-78c-3.27-30.77-29.38-54.81-61-54.81h0Z"/>
  <path class="st0" d="M4304.26,964.75c7.86,0,14.23,6.37,14.23,14.23v108.68c0,12.38,10.13,22.52,22.52,22.52h66.42c12.38,0,22.52-10.13,22.52-22.52v-102.75c0-11.13,9.02-20.15,20.15-20.15h186.86c9.52,0,17.23,7.72,17.23,17.23v105.67c0,12.38,10.13,22.52,22.52,22.52h66.42c12.38,0,22.52-10.13,22.52-22.52v-102.29c0-11.38,9.23-20.61,20.61-20.61h86.79c10.67,0,19.41,8.74,19.41,19.42v174.9c0,48.84-39.96,88.8-88.8,88.8h-518.38s0,0,0,0c-50.37,0-91.58-41.21-91.58-91.58v-172.12c0-10.68,8.73-19.42,19.41-19.42h91.16M4304.26,908.75h-91.16c-41.58,0-75.41,33.83-75.41,75.42v172.12c0,81.38,66.2,147.58,147.58,147.58h518.39c79.84,0,144.8-64.95,144.8-144.79v-174.9c0-41.59-33.83-75.42-75.41-75.42h-86.79c-39.58,0-72.25,30.17-76.21,68.72-2.34-38.29-34.23-68.72-73.09-68.72h-186.86c-39.07,0-71.35,29.57-75.66,67.5-1.43-37.47-32.36-67.51-70.18-67.51h0Z"/>
  <path class="st0" d="M4838.49,1766.27c53.57,0,97.4,43.83,97.4,97.4v30.03c0,11.96-9.79,21.75-21.75,21.75h-742.43c-10.18-.01-18.51-8.34-18.51-18.52v-29.8c0-55.47,45.39-100.86,100.86-100.86h584.43M4838.49,1710.27h-584.43c-21.12,0-41.66,4.18-61.06,12.42-18.64,7.92-35.39,19.23-49.77,33.61-14.38,14.38-25.69,31.13-33.61,49.77-8.24,19.39-12.42,39.94-12.42,61.06v29.8c0,41.09,33.43,74.51,74.51,74.51h742.43c42.87.01,77.75-34.87,77.75-77.74v-30.03c0-84.59-68.81-153.4-153.4-153.4h0Z"/>
  <path class="st0" d="M4930.39,1946.4c21.31,0,38.74,17.43,38.74,38.74v57.44c0,13.08-10.7,23.78-23.78,23.78h-804.03c-12.88,0-23.42-10.54-23.42-23.42v-58.16c0-21.11,17.27-38.38,38.38-38.38h774.11M4930.39,1890.4h-774.11c-52.04,0-94.38,42.34-94.38,94.38v58.16c0,43.79,35.63,79.42,79.42,79.42h804.03c43.99,0,79.78-35.79,79.78-79.78v-57.44c0-52.24-42.5-94.74-94.74-94.74h0Z"/>
  <path class="st0" d="M5102.43,1554.36c48.08,0,94.74,9.42,138.68,28.01,21.22,8.97,41.35,19.88,60.26,32.63,18.92,12.75,36.62,27.35,52.98,43.71,32.71,32.71,58.39,70.81,76.34,113.24,18.59,43.94,28.01,90.6,28.01,138.68s-9.43,94.74-28.01,138.68c-17.94,42.43-43.63,80.53-76.34,113.24-32.71,32.71-70.81,58.39-113.24,76.34-43.94,18.59-90.59,28.01-138.68,28.01s-94.74-9.42-138.68-28.01c-42.43-17.94-80.53-43.63-113.24-76.34-9.96-9.96-19.27-20.43-27.91-31.36h68.08c55,52.83,129.65,85.34,211.75,85.34,168.68,0,305.9-137.23,305.9-305.9s-137.22-305.9-305.9-305.9c-71.18,0-136.76,24.44-188.79,65.36-2.89-17.73-10.19-34.01-20.74-47.66,21.94-15.99,45.63-29.39,70.85-40.06,43.94-18.59,90.6-28.01,138.68-28.01M5102.43,1498.36c-55.63,0-109.63,10.91-160.5,32.44-29.07,12.3-56.66,27.9-82.01,46.38-12.22,8.91-20.32,22.38-22.46,37.36-2.13,14.97,1.88,30.18,11.13,42.14,5.08,6.57,8.46,14.32,9.78,22.42,3.19,19.56,16.48,35.98,34.95,43.17,6.58,2.56,13.47,3.82,20.32,3.82,12.37,0,24.6-4.1,34.62-11.98,44.4-34.92,97.71-53.38,154.17-53.38,137.8,0,249.9,112.1,249.9,249.9s-112.1,249.9-249.9,249.9c-64.72,0-126.15-24.76-172.96-69.73-10.43-10.02-24.33-15.61-38.79-15.61h-68.08c-21.47,0-41.05,12.27-50.4,31.59-9.36,19.32-6.84,42.29,6.47,59.13,9.98,12.62,20.83,24.81,32.24,36.23,37.85,37.85,81.93,67.56,131.03,88.32,50.86,21.52,104.86,32.43,160.49,32.43s109.63-10.91,160.5-32.44c49.11-20.78,93.19-50.49,131.02-88.32,37.85-37.85,67.56-81.93,88.32-131.03,21.52-50.89,32.43-104.89,32.43-160.49s-10.91-109.63-32.44-160.5c-20.78-49.11-50.49-93.19-88.32-131.02-18.83-18.83-39.45-35.84-61.28-50.55-21.86-14.74-45.33-27.45-69.75-37.77-50.86-21.52-104.86-32.43-160.48-32.43h0Z"/>
  <path class="st0" d="M5116.53,1153.09c27.31,0,49.66,22.35,49.66,49.66v122.15c61.31,6.6,119.8,22.59,174.01,46.53l61.02-105.7c9.17-15.89,25.96-24.8,43.15-24.8,8.41,0,16.92,2.13,24.69,6.62l24.35,14.06c23.65,13.66,31.83,44.19,18.18,67.84l-61.08,105.79c48.66,35.69,91.65,78.67,127.34,127.34l105.78-61.08c7.76-4.48,16.27-6.61,24.68-6.61,17.2,0,33.98,8.9,43.16,24.79l14.06,24.36c13.65,23.66,5.47,54.18-18.18,67.84l-105.7,61.02c23.93,54.21,39.93,112.7,46.52,174.01h122.16c27.31,0,49.66,22.35,49.66,49.66v28.12c0,27.31-22.35,49.66-49.66,49.66h-122.15c-6.59,61.31-22.59,119.8-46.52,174.01l105.7,61.02c23.66,13.66,31.84,44.19,18.18,67.84l-14.06,24.36c-9.17,15.88-25.96,24.79-43.15,24.79-8.41,0-16.92-2.13-24.69-6.61l-105.78-61.08c-35.69,48.66-78.67,91.65-127.34,127.34l61.08,105.79c13.65,23.65,5.47,54.18-18.18,67.84l-24.35,14.06c-7.76,4.48-16.27,6.61-24.68,6.61-17.2,0-33.98-8.9-43.16-24.79l-61.02-105.7c-54.21,23.94-112.7,39.93-174.01,46.53v122.15c0,27.32-22.35,49.66-49.66,49.66h-28.13c-27.31,0-49.66-22.35-49.66-49.66v-122.15c-61.31-6.6-119.8-22.6-174.01-46.53l-61.02,105.7c-9.17,15.89-25.96,24.8-43.15,24.8-8.41,0-16.92-2.13-24.69-6.62l-24.36-14.06c-23.66-13.66-31.84-44.19-18.18-67.84l61.08-105.79c-48.67-35.69-91.66-78.67-127.35-127.34l-105.79,61.08c-7.77,4.48-16.28,6.61-24.69,6.61-17.2,0-33.98-8.9-43.15-24.79l-14.06-24.36c-13.65-23.66-5.47-54.19,18.18-67.84l105.7-61.02c-2.51-5.68-4.93-11.4-7.26-17.17h184.06c74.48,122.11,208.92,203.63,362.41,203.63,234.27,0,424.19-189.92,424.19-424.19s-189.91-424.19-424.19-424.19c-90.56,0-174.49,28.38-243.39,76.73l-19.96-129.29c9.9-3.55,18.98-9.28,26.65-16.95,14.41-14.41,21.98-34.42,20.98-54.69,47.91-18.87,98.89-31.63,151.99-37.34v-122.15c0-27.32,22.35-49.66,49.66-49.66h28.13M5116.53,1097.09h-28.13c-58.26,0-105.66,47.4-105.66,105.66v73.84c-39.82,7.48-78.84,18.7-116.51,33.54-22.35,8.8-36.59,30.87-35.41,54.86.23,4.59-1.51,9.2-4.65,12.33-1.76,1.76-3.76,3.05-5.95,3.83-25.25,9.05-40.54,34.75-36.44,61.26l19.96,129.29c2.95,19.13,15.58,35.38,33.39,42.97,7.05,3,14.52,4.48,21.95,4.48,11.34,0,22.6-3.44,32.17-10.16,62.06-43.55,135.1-66.57,211.22-66.57,203.02,0,368.19,165.17,368.19,368.19s-165.17,368.19-368.19,368.19c-129.47,0-247.08-66.09-314.6-176.79-10.17-16.67-28.28-26.84-47.81-26.84h-184.06c-18.62,0-36.01,9.25-46.42,24.68-4.07,6.04-6.87,12.71-8.34,19.63l-71.67,41.37c-50.44,29.11-67.8,93.86-38.69,144.32l14.07,24.37c18.81,32.57,53.93,52.8,91.66,52.8,18.46,0,36.68-4.88,52.67-14.1l64.04-36.98c21.09,24.52,43.98,47.4,68.5,68.5l-36.96,64.02c-14.09,24.39-17.82,52.86-10.5,80.16,7.32,27.3,24.78,50.09,49.18,64.18l24.37,14.06c15.98,9.23,34.2,14.12,52.68,14.12,37.73,0,72.85-20.23,91.65-52.8l36.89-63.9c30.53,10.7,61.81,19.06,93.64,25.04v73.84c0,58.26,47.4,105.66,105.66,105.66h28.13c58.26,0,105.66-47.4,105.66-105.66v-73.84c31.84-5.98,63.12-14.34,93.64-25.04l36.89,63.9c18.81,32.57,53.93,52.79,91.66,52.79,18.47,0,36.68-4.88,52.67-14.11l24.36-14.07c50.45-29.14,67.8-93.88,38.68-144.33l-36.97-64.03c24.51-21.09,47.39-43.97,68.49-68.49l64.01,36.96c16,9.24,34.22,14.12,52.69,14.12,37.72,0,72.84-20.23,91.65-52.79l14.07-24.37c14.08-24.38,17.81-52.85,10.5-80.16-7.32-27.3-24.78-50.09-49.18-64.18l-63.9-36.89c10.7-30.53,19.06-61.82,25.03-93.64h73.84c58.26,0,105.66-47.4,105.66-105.66v-28.12c0-58.26-47.4-105.66-105.66-105.66h-73.85c-5.97-31.82-14.34-63.11-25.03-93.64l63.9-36.89c50.44-29.14,67.79-93.88,38.69-144.32l-14.07-24.37c-18.81-32.57-53.93-52.8-91.66-52.8-18.47,0-36.68,4.88-52.67,14.11l-64.02,36.97c-21.09-24.51-43.97-47.39-68.49-68.49l36.97-64.02c29.12-50.45,11.77-115.2-38.67-144.33l-24.36-14.06c-15.99-9.24-34.21-14.12-52.69-14.12-37.73,0-72.85,20.23-91.65,52.8l-36.89,63.9c-30.52-10.7-61.81-19.06-93.64-25.04v-73.84c0-58.26-47.4-105.66-105.66-105.66h0Z"/>
</svg>