<?xml version="1.0" encoding="UTF-8"?>
<svg id="Layer_1" xmlns="http://www.w3.org/2000/svg" version="1.1" xmlns:xlink="http://www.w3.org/1999/xlink" viewBox="0 0 512 512">
  <!-- Generator: Adobe Illustrator 30.0.0, SVG Export Plug-In . SVG Version: 2.1.1 Build 123)  -->
  <defs>
    <style>
      .st0 {
        fill: none;
      }

      .st1 {
        fill: url(#radial-gradient);
      }

      .st2 {
        clip-path: url(#clippath);
      }
    </style>
    <clipPath id="clippath">
      <path class="st0" d="M125.76,24.34c-4.51,0-8.21,3.69-8.21,8.21h0v72.76c0,21.29,17.42,38.71,38.71,38.71h219.13c20.64,0,37.54-16.89,37.54-37.53h0V32.56c0-4.52-3.7-8.21-8.21-8.21h-36.69c-4.81,0-8.71,3.9-8.71,8.71h0v43.24c0,5.24-4.29,9.52-9.52,9.52h-28.08c-5.24,0-9.52-4.29-9.52-9.52h0V31.63c0-4.02-3.26-7.28-7.28-7.28h-78.99c-4.7,0-8.52,3.81-8.52,8.52h0v43.43c0,5.24-4.29,9.52-9.52,9.52h-28.08c-5.24,0-9.52-4.29-9.52-9.52h0V30.36c0-3.32-2.69-6.02-6.01-6.02h-38.53ZM152.67,158.31c-1.24,0-2.26,1.02-2.26,2.26h0l-6.32,33.76c-.16.88.18,1.8.92,2.3h0c.36.25.8.39,1.26.39h27.39l-18.19,116.92h-7.7c-9.18,0-16.69,7.51-16.69,16.68h0v3.11c0,9.18,7.51,16.69,16.69,16.69h232.51c.24,0,.48-.04.7-.11h0c8.29-.96,14.78-8.04,14.78-16.58h0v-3.11c0-9.18-7.51-16.69-16.69-16.69h-1.79l-18.05-116.92h22.37c.62,0,1.19-.25,1.6-.66h0c.51-.51.72-1.25.61-1.96h0l-5.22-33.82c0-1.24-1.02-2.26-2.26-2.26h-223.65ZM143.07,363.15c-23.45,0-42.63,19.19-42.63,42.63h0v12.6c0,4.3,3.52,7.82,7.82,7.82h313.83c5.06,0,9.19-4.13,9.19-9.19h0v-12.69c0-22.65-18.53-41.17-41.17-41.17h-247.04ZM101.74,439.29c-8.92,0-16.22,7.3-16.22,16.22h0v24.58c0,5.44,4.46,9.9,9.9,9.9h339.87c5.53,0,10.05-4.52,10.05-10.05h0v-24.28c0-9.01-7.37-16.37-16.38-16.37H101.74Z"/>
    </clipPath>
    <radialGradient id="radial-gradient" cx="-1240.1" cy="1754.08" fx="-1240.1" fy="1754.08" r="1.73" gradientTransform="translate(635172.99 898340.99) scale(512 -512)" gradientUnits="userSpaceOnUse">
      <stop offset="0" stop-color="#6a329f"/>
      <stop offset=".5" stop-color="#3a2a6f"/>
      <stop offset="1" stop-color="#6a329f"/>
    </radialGradient>
  </defs>
  <g class="st2">
    <rect class="st1" x="-391.98" y="-379.79" width="1268.12" height="1268.12"/>
  </g>
</svg>