<svg xmlns="http://www.w3.org/2000/svg" width="512" height="512" viewBox="0 0 3000 3000">

  <!-- CONIC GRADIENT (as raster) -->
  <defs>
    <radialGradient id="grad" cx="50%" cy="50%" r="70%" fx="50%" fy="50%">
      <stop offset="0%" stop-color="#6a329f"></stop>
      <stop offset="50%" stop-color="#3a2a6f"></stop>
      <stop offset="100%" stop-color="#6a329f"></stop>
    </radialGradient>

    <!-- Clip shape defines the rook -->
    <clipPath id="rookClip">
      <!-- paste your rook paths here -->
      <path d="M1441.68,976.22v102.75c0,12.39-10.14,22.52-22.52,22.52h-66.42c-12.39,0-22.52-10.14-22.52-22.52v-108.68c0-7.86-6.37-14.23-14.23-14.23h-91.16c-10.68,0-19.41,8.74-19.41,19.42v172.12c0,50.37,41.21,91.58,91.58,91.58h.01s518.38.01,518.38.01c48.84,0,88.8-39.96,88.8-88.8v-174.9c0-10.68-8.74-19.42-19.41-19.42h-86.79c-11.38,0-20.61,9.23-20.61,20.61v102.29c0,12.39-10.14,22.52-22.52,22.52h-66.42c-12.39,0-22.52-10.14-22.52-22.52v-105.67c0-9.51-7.71-17.23-17.23-17.23h-186.86c-11.13,0-20.15,9.02-20.15,20.15Z"></path>
      <path d="M1824.09,1641.16h-4.24l-42.7-276.6h52.92c1.47,0,2.81-.6,3.78-1.57,1.21-1.21,1.7-2.96,1.44-4.64l-12.35-80.02c0-2.94-2.41-5.35-5.35-5.35h-529.1c-2.94,0-5.35,2.41-5.35,5.35l-14.96,79.87c-.39,2.08.42,4.26,2.17,5.45.85.58,1.88.92,2.99.92h64.79l-43.02,276.6h-18.21c-21.71-.01-39.48,17.76-39.48,39.47v7.35c0,21.71,17.77,39.48,39.48,39.48h550.05c.57,0,1.13-.09,1.65-.26,19.61-2.26,34.97-19.03,34.97-39.22v-7.35c0-21.71-17.77-39.48-39.48-39.48Z"></path>
      <path d="M1265.79,1757.58c-55.47,0-100.86,45.39-100.86,100.86v29.8c0,10.18,8.33,18.51,18.51,18.51h0s742.43.01,742.43.01c11.96,0,21.75-9.79,21.75-21.75v-30.03c0-53.57-43.83-97.4-97.4-97.4h-584.43Z"></path>
      <path d="M1980.86,2033.89v-57.44c0-21.31-17.43-38.74-38.74-38.74h-774.11c-21.11,0-38.38,17.27-38.38,38.38v58.16c0,12.88,10.54,23.42,23.42,23.42h804.03c13.08,0,23.78-10.7,23.78-23.78Z"></path>
    </clipPath>

  </defs>

  <!-- Apply the gradient inside the rook -->
  <rect width="3000" height="3000" fill="url(#grad)" clip-path="url(#rookClip)"></rect>

</svg>
